<?xml version="1.0" encoding="UTF-8" standalone="no"?>
<!-- Created with Inkscape (http://www.inkscape.org/) -->

<svg
   xmlns:dc="http://purl.org/dc/elements/1.1/"
   xmlns:cc="http://creativecommons.org/ns#"
   xmlns:rdf="http://www.w3.org/1999/02/22-rdf-syntax-ns#"
   xmlns:svg="http://www.w3.org/2000/svg"
   xmlns="http://www.w3.org/2000/svg"
   xmlns:sodipodi="http://sodipodi.sourceforge.net/DTD/sodipodi-0.dtd"
   xmlns:inkscape="http://www.inkscape.org/namespaces/inkscape"
   width="120mm"
   height="120mm"
   viewBox="0 0 425.19685039 425.19685039"
   id="svg2816"
   version="1.1"
   inkscape:version="0.91 r13725"
   sodipodi:docname="left_pil.svg">
  <defs
     id="defs2818" />
  <sodipodi:namedview
     pagecolor="#ffffff"
     bordercolor="#666666"
     borderopacity="1.0"
     inkscape:pageopacity="0.0"
     inkscape:pageshadow="2"
     inkscape:zoom="2"
     inkscape:cx="213.13647"
     inkscape:cy="212.59843"
     inkscape:document-units="mm"
     inkscape:current-layer="Template"
     id="namedview2820"
     showgrid="false"
     units="mm"
     showguides="true"
     inkscape:guide-bbox="true"
     inkscape:snap-global="true"
     inkscape:snap-bbox="true"
     inkscape:snap-bbox-midpoints="true"
     inkscape:window-width="1920"
     inkscape:window-height="1058"
     inkscape:window-maximized="1"
     inkscape:bbox-paths="true"
     inkscape:bbox-nodes="true"
     inkscape:snap-bbox-edge-midpoints="true"
     inkscape:snap-grids="true"
     inkscape:window-x="3352"
     inkscape:window-y="-8">
    <sodipodi:guide
       orientation="1,0"
       position="212.59843,0"
       id="guide3337" />
    <sodipodi:guide
       orientation="0,1"
       position="0,212.59843"
       id="guide3339" />
    <inkscape:grid
       type="xygrid"
       id="grid3351"
       units="mm"
       spacingx="1mm"
       spacingy="1mm"
       empspacing="5" />
  </sodipodi:namedview>
  <metadata
     id="metadata2822">
    <rdf:RDF>
      <cc:Work
         rdf:about="">
        <dc:format>image/svg+xml</dc:format>
        <dc:type
           rdf:resource="http://purl.org/dc/dcmitype/StillImage" />
        <dc:title />
      </cc:Work>
    </rdf:RDF>
  </metadata>
  <g
     inkscape:groupmode="layer"
     id="Template"
     inkscape:label="Layer 1"
     style="fill:none;stroke:#000000;stroke-width:0.35433071px">
    <path
       style="fill:#808080;stroke-width:0.23459612px"
       d="m 192.5833,423.65162 c -5.01839,-1.85755 -10.20709,-5.0704 -15.63516,-9.68128 C 171.99566,409.76345 36.308269,279.53944 24.896285,268.04076 4.3748092,247.36339 0.09545492,239.75943 0.11738204,224.01125 0.1333496,212.5404 2.6561683,204.58781 9.2034161,195.36963 c 1.8539759,-2.6103 9.7876859,-11.63936 17.6304689,-20.06459 7.84278,-8.42521 42.87405,-46.72165 77.847265,-85.103199 34.97322,-38.381542 65.99957,-72.273944 68.94747,-75.316444 9.77868,-10.0924914 18.84663,-14.7667663 28.64974,-14.7681279 9.32817,-0.001296 16.72997,3.7207856 25.47595,12.8108649 11.44974,11.900249 14.12885,26.017471 7.56884,39.883113 -1.98599,4.197703 -7.05449,10.05618 -45.75304,52.884223 -42.26616,46.77632 -52.55144,58.84203 -54.98522,64.50338 -1.85926,4.32491 -1.57983,8.00434 0.82813,10.90431 2.53584,3.05401 4.5068,4.1328 8.59647,4.70522 1.77059,0.24782 55.90827,0.12581 120.30594,-0.27107 81.78094,-0.50404 118.76554,-0.50615 122.65439,-0.007 20.90496,2.68328 33.06454,12.6904 36.56503,30.0924 1.19884,5.95984 0.84853,19.57851 -0.62838,24.42847 -1.67741,5.50831 -4.07873,9.74662 -7.36233,12.99442 -4.07619,4.0317 -8.37239,6.32018 -15.44587,8.2276 -5.60381,1.51112 -5.87431,1.51796 -60.03492,1.51796 -29.92316,0 -87.00091,-0.1108 -126.83946,-0.24617 -67.42168,-0.22915 -72.62361,-0.16491 -75.17837,0.92846 -7.35102,3.14604 -6.94452,10.35169 1.05443,18.69114 1.992,2.0768 21.50271,19.6452 43.35712,39.04091 21.85443,19.39571 41.04825,36.85198 42.65295,38.79172 7.56756,9.14761 10.71116,20.28443 8.63336,30.58544 -2.32562,11.52974 -13.65198,27.04123 -23.47974,32.15563 -5.30946,2.76305 -11.78011,3.09732 -17.68034,0.91334 z"
       id="path3337"
       inkscape:connector-curvature="0" />
  </g>
</svg>
