<?xml version="1.0" encoding="UTF-8" standalone="no"?>
<!-- Created with Inkscape (http://www.inkscape.org/) -->

<svg
   xmlns:dc="http://purl.org/dc/elements/1.1/"
   xmlns:cc="http://creativecommons.org/ns#"
   xmlns:rdf="http://www.w3.org/1999/02/22-rdf-syntax-ns#"
   xmlns:svg="http://www.w3.org/2000/svg"
   xmlns="http://www.w3.org/2000/svg"
   xmlns:sodipodi="http://sodipodi.sourceforge.net/DTD/sodipodi-0.dtd"
   xmlns:inkscape="http://www.inkscape.org/namespaces/inkscape"
   width="120mm"
   height="120mm"
   viewBox="0 0 425.19685039 425.19685039"
   id="svg2816"
   version="1.1"
   inkscape:version="0.91 r13725"
   sodipodi:docname="Pil.svg">
  <defs
     id="defs2818" />
  <sodipodi:namedview
     pagecolor="#ffffff"
     bordercolor="#666666"
     borderopacity="1.0"
     inkscape:pageopacity="0.0"
     inkscape:pageshadow="2"
     inkscape:zoom="2"
     inkscape:cx="296.62688"
     inkscape:cy="226.9368"
     inkscape:document-units="mm"
     inkscape:current-layer="Template"
     id="namedview2820"
     showgrid="false"
     units="mm"
     showguides="true"
     inkscape:guide-bbox="true"
     inkscape:snap-global="true"
     inkscape:snap-bbox="true"
     inkscape:snap-bbox-midpoints="true"
     inkscape:window-width="1920"
     inkscape:window-height="1018"
     inkscape:window-maximized="1"
     inkscape:bbox-paths="true"
     inkscape:bbox-nodes="true"
     inkscape:snap-bbox-edge-midpoints="true"
     inkscape:snap-grids="true"
     inkscape:window-x="1432"
     inkscape:window-y="-8">
    <sodipodi:guide
       orientation="1,0"
       position="212.59843,0"
       id="guide3337" />
    <sodipodi:guide
       orientation="0,1"
       position="0,212.59843"
       id="guide3339" />
    <inkscape:grid
       type="xygrid"
       id="grid3351"
       units="mm"
       spacingx="1mm"
       spacingy="1mm"
       empspacing="5" />
  </sodipodi:namedview>
  <metadata
     id="metadata2822">
    <rdf:RDF>
      <cc:Work
         rdf:about="">
        <dc:format>image/svg+xml</dc:format>
        <dc:type
           rdf:resource="http://purl.org/dc/dcmitype/StillImage" />
        <dc:title />
      </cc:Work>
    </rdf:RDF>
  </metadata>
  <g
     inkscape:groupmode="layer"
     id="Template"
     inkscape:label="Layer 1"
     style="fill:none;stroke:#000000;stroke-width:0.35433071px">
    <path
       style="fill:none;fill-rule:evenodd;stroke:#000000;stroke-width:1px;stroke-linecap:butt;stroke-linejoin:miter;stroke-opacity:1"
       d="M 62.202796,211.5681 C 62.163834,194.31529 69.939066,187.80524 85,172.74804 l 38,-39.3504 38,-39.350395 38,-39.350395 C 212.59842,42.870999 226.19261,41.39516 240.53643,54.75141 253.80295,68.125834 250.6604,84.108 240,93.69685 l -21.125,22.125 -21.125,22.125 -21.125,22.125 c -3.19433,4.45916 -10.1948,10.75463 -9.45774,16.46815 3.86746,6.38957 6.88785,5.14095 13.39524,5.53185 l 25.0625,-0.125 25.0625,-0.125 25.0625,-0.125 25.0625,-0.125 25.0625,-0.125 25.0625,-0.125 25.0625,-0.125 c 19.62641,0.0165 37.34276,6.91828 37.47666,31.09099 C 393.16602,237.83829 375.91881,240.0882 356,240.19685 l -25.125,-0.125 -25.125,-0.125 -25.125,-0.125 -25.125,-0.125 -25.125,-0.125 -25.125,-0.125 -25.125,-0.125 c -8.98805,-0.1809 -11.65675,0.92543 -13.28096,4.47119 -0.74141,3.70708 2.79591,7.67221 8.53096,12.52881 l 20.375,17.125 20.375,17.125 20.375,17.125 c 12.4454,13.39637 12.74711,26.82364 -0.125,41.75 -12.49971,14.27018 -23.77658,11.50604 -37.875,0.25 L 160.625,315.29725 122.75,280.89764 84.875,246.49804 C 71.624062,233.37685 62.408229,226.77876 62.202796,211.5681 Z"
       id="path3349"
       inkscape:connector-curvature="0"
       sodipodi:nodetypes="ccccccccccccccccccccccccccccccccccccccc" />
  </g>
</svg>
