<?xml version="1.0" encoding="UTF-8" standalone="no"?>
<!-- Created with Inkscape (http://www.inkscape.org/) -->

<svg
   xmlns:dc="http://purl.org/dc/elements/1.1/"
   xmlns:cc="http://creativecommons.org/ns#"
   xmlns:rdf="http://www.w3.org/1999/02/22-rdf-syntax-ns#"
   xmlns:svg="http://www.w3.org/2000/svg"
   xmlns="http://www.w3.org/2000/svg"
   xmlns:sodipodi="http://sodipodi.sourceforge.net/DTD/sodipodi-0.dtd"
   xmlns:inkscape="http://www.inkscape.org/namespaces/inkscape"
   id="svg3419"
   sodipodi:docname="pref.svg"
   viewBox="0 0 154.88 154.92"
   version="1.1"
   inkscape:version="0.91 r13725">
  <defs
     id="defs8" />
  <sodipodi:namedview
     id="base"
     bordercolor="#666666"
     inkscape:pageshadow="2"
     inkscape:window-y="-8"
     fit-margin-left="0"
     pagecolor="#ffffff"
     fit-margin-top="0"
     inkscape:window-maximized="1"
     inkscape:zoom="1.3582227"
     inkscape:window-x="1432"
     inkscape:window-height="1018"
     showgrid="false"
     borderopacity="1.0"
     inkscape:current-layer="layer1"
     inkscape:cx="60.874219"
     inkscape:cy="94.089826"
     fit-margin-right="0"
     fit-margin-bottom="0"
     inkscape:window-width="1920"
     inkscape:pageopacity="0.0"
     inkscape:document-units="px" />
  <g
     id="layer1"
     inkscape:label="Ebene 1"
     inkscape:groupmode="layer"
     transform="translate(-263.31 -563.77)">
    <path
       id="path3243"
       style="color:#808080;stroke:#808080;stroke-width:3.4322;fill:#808080"
       inkscape:connector-curvature="0"
       d="m336.78 565.51c-1.5973 0.10936-3.15 0.35671-4.7194 0.53629h-0.1063l-3.7538 20.486c-6.119 1.3934-11.875 3.7582-17.054 6.9717l-16.85-12.12c-4.5522 3.5341-8.6946 7.6559-12.334 12.12l11.691 17.054c-3.5496 5.4246-6.2191 11.619-7.7225 18.126-0.00018 0.031-0.00018 0.10198 0 0.10702l-20.379 3.2177c-0.3725 3.0431-0.53624 6.1881-0.53624 9.3313 0 2.5718 0.071 5.1092 0.32165 7.6152l20.379 3.6467c1.4493 7.0769 4.2026 13.686 8.0441 19.521l-12.12 16.625c3.4711 4.3092 7.4784 8.2326 11.798 11.691l17.161-11.798c5.9977 3.826 12.693 6.5088 19.95 7.8298l3.2176 20.272c2.2866 0.20798 4.6316 0.2145 6.9719 0.2145 3.3039 0 6.46-0.12522 9.6531-0.53628l3.8614-20.701c6.8901-1.7147 13.363-4.6894 18.984-8.6878l16.517 12.013c4.2835-3.6443 8.2005-7.8332 11.584-12.335l-12.013-17.376c3.2534-5.6185 5.5073-11.818 6.6498-18.448l20.272-3.2177c0.17838-2.1154 0.21297-4.167 0.21297-6.3282 0-3.7556-0.43675-7.4379-0.96556-11.047l-20.593-3.754c-1.6138-5.9591-4.2617-11.519-7.615-16.518l12.12-16.625c-3.7569-4.5944-8.0424-8.8386-12.763-12.442l-17.483 12.013c-5.0248-2.9718-10.432-5.2519-16.303-6.5427l-3.2176-20.379c-2.9286-0.34452-5.8815-0.53628-8.9021-0.53628-0.81656 0-1.6567-0.024-2.4672 0-0.39495 0.0126-0.78593-0.024-1.1796 0-0.1063 0.007-0.21621-0.007-0.32269 0zm2.7888 52.127c0.39207-0.0213 0.78323 0 1.18 0 12.696 0 23.06 10.364 23.06 23.06s-10.364 22.953-23.06 22.953-22.953-10.257-22.953-22.953c0-12.299 9.6261-22.444 21.773-23.06z" />
    <path
       style="fill:#808080;stroke:none;stroke-width:1px;stroke-linecap:butt;stroke-linejoin:miter;stroke-opacity:1"
       d="m 67.939256,145.83096 c -1.881009,-12.70705 -1.30022,-11.63515 -7.290072,-13.45451 -2.884745,-0.87621 -7.1055,-2.5323 -9.379455,-3.68018 l -4.134465,-2.08708 -8.604666,5.89432 -8.604666,5.89433 -3.803828,-3.41997 c -2.092105,-1.88098 -5.09631,-4.8883 -6.676011,-6.68294 l -2.872184,-3.26297 6.016721,-8.19058 6.016721,-8.19058 -2.940347,-6.3506 C 24.049815,98.807368 22.364748,94.590431 21.922415,92.929223 L 21.118171,89.90885 10.809688,88.166897 0.50120359,86.424944 0.51247773,77.566529 c 0.006201,-4.872129 0.26235529,-9.253328 0.56923227,-9.736 0.306877,-0.482672 5.0762325,-1.597981 10.598568,-2.478464 l 10.040609,-1.600878 0.44403,-2.366884 c 0.244217,-1.301787 1.785926,-5.141753 3.42602,-8.533259 l 2.981989,-6.166374 -5.898579,-8.671706 -5.89858,-8.671706 5.785538,-5.840224 c 3.182045,-3.212124 6.425482,-6.182713 7.207638,-6.60131 1.191866,-0.637867 2.760459,0.199395 9.688737,5.171524 l 8.266634,5.932611 5.859498,-2.678448 c 3.222724,-1.473147 6.804318,-2.867412 7.959098,-3.098368 2.053697,-0.410739 2.135248,-0.615469 3.730272,-9.3647 0.896871,-4.9196303 1.800842,-9.6902412 2.008825,-10.6013583 0.368026,-1.61222498 0.631105,-1.65657669 9.826214,-1.65657669 6.749939,0 9.618165,0.26282009 10.043706,0.92032039 0.327605,0.5061762 1.260132,5.160068 2.072275,10.3419816 l 1.476635,9.421662 4.781543,1.680831 c 2.629856,0.924456 5.84187,2.234241 7.13782,2.910631 1.29595,0.67639 2.71869,1.2298 3.16165,1.2298 0.44297,0 4.43268,-2.507995 8.86602,-5.573322 5.75589,-3.979775 8.46769,-5.444126 9.4843,-5.121465 1.62932,0.517124 13.3127,11.897521 13.3127,12.967457 0,0.388398 -2.64933,4.333796 -5.8874,8.767553 l -5.88741,8.061376 2.51283,4.622134 c 1.38206,2.542174 2.91393,5.995838 3.40416,7.67481 l 0.89132,3.052677 6.71672,1.197969 c 3.69421,0.658883 8.41309,1.536112 10.48644,1.949397 l 3.76969,0.751429 0.46378,3.383569 c 0.25507,1.860964 0.46377,6.275907 0.46377,9.810983 l 0,6.427414 -9.83846,1.568645 c -5.41115,0.862753 -10.02323,1.568646 -10.24909,1.568646 -0.22584,0 -0.6338,1.076775 -0.90657,2.392833 -0.27276,1.316058 -1.63805,5.284362 -3.03399,8.818458 l -2.53807,6.425623 5.95956,8.51241 5.95955,8.51239 -2.19092,2.73213 c -1.20501,1.50267 -4.17603,4.68156 -6.60227,7.0642 l -4.41135,4.33208 -8.25017,-5.97532 -8.25017,-5.97532 -4.51332,2.48798 c -2.48232,1.36839 -6.540831,3.21326 -9.018907,4.09972 l -4.505594,1.61174 -1.744677,9.96101 c -2.068049,11.80728 -1.435303,11.26313 -13.096984,11.26313 l -7.927483,0 -1.280599,-8.65101 z M 86.643189,96.348677 c 4.470106,-2.242644 7.837279,-5.543494 10.170718,-9.970412 2.560235,-4.857186 2.745426,-12.982533 0.41198,-18.075684 -3.726996,-8.134809 -10.865089,-12.769348 -19.742794,-12.818378 -12.243594,-0.06762 -21.258908,8.943701 -21.33218,21.322731 -0.05948,10.049346 5.712806,17.76487 15.76715,21.075152 3.271047,1.076951 11.159415,0.255495 14.725126,-1.533409 z"
       id="path3336"
       inkscape:connector-curvature="0"
       transform="translate(263.31,563.77)" />
    <path
       style="fill:#808080"
       d="m 69.416025,153.64282 c -0.170144,-0.55082 -0.840054,-4.62687 -1.488689,-9.05789 -0.648634,-4.43102 -1.650566,-8.7756 -2.226514,-9.6546 -0.582764,-0.88941 -2.783186,-2.15584 -4.961596,-2.85558 -2.152929,-0.69157 -6.125949,-2.26544 -8.828933,-3.4975 l -4.914516,-2.2401 -8.158321,5.65372 c -5.605153,3.88437 -8.583304,5.51883 -9.516298,5.22271 -1.648378,-0.52318 -11.88606,-10.95504 -11.88606,-12.11151 0,-0.45257 2.337931,-3.98839 5.195403,-7.85738 2.857472,-3.86899 5.361624,-7.46768 5.564781,-7.99711 0.203158,-0.52942 -1.140827,-4.49832 -2.986634,-8.81978 -1.845807,-4.321461 -3.356012,-8.319804 -3.356012,-8.885212 0,-1.533843 -0.676075,-1.767847 -9.721867,-3.364964 C 7.5567424,87.370039 3.0192608,86.53321 2.0474766,86.318003 L 0.28059632,85.926712 0.72729655,77.042374 C 0.97298174,72.155984 1.3078874,68.02414 1.4715312,67.860496 1.7321669,67.59986 11.171946,65.711055 19.013014,64.350621 c 2.455521,-0.426036 2.787563,-0.787207 3.927332,-4.271851 0.684769,-2.093557 2.211085,-5.720205 3.391814,-8.059218 1.180731,-2.339013 2.146782,-4.618162 2.146782,-5.064776 0,-0.446614 -2.484865,-4.471879 -5.521922,-8.945034 -3.037057,-4.473154 -5.521922,-8.36552 -5.521922,-8.649703 0,-0.824923 12.25453,-12.557993 13.116116,-12.557993 0.735264,0 6.651875,3.870008 13.492555,8.825371 1.684383,1.220161 3.463117,2.218474 3.952744,2.218474 0.489626,0 3.400039,-1.159604 6.467585,-2.576897 3.067545,-1.417294 6.088406,-2.576897 6.713022,-2.576897 1.971008,0 3.169592,-3.043873 4.842552,-12.297934 l 1.624279,-8.9847815 3.340335,-0.50091422 c 3.966557,-0.59482164 14.830563,0.0422302 15.697483,0.92048072 0.334481,0.3388554 1.311751,4.7507596 2.171706,9.804232 0.859962,5.053471 1.721271,9.345845 1.914038,9.538608 0.51465,0.514652 12.176657,5.260278 14.004127,5.698707 1.0903,0.261573 4.00524,-1.203558 9.64286,-4.846773 4.44411,-2.871922 8.57271,-5.221676 9.17467,-5.221676 1.57874,0 13.11945,10.933643 13.11945,12.429338 0,0.691851 -2.2722,4.428842 -5.04933,8.304426 -2.77713,3.875583 -5.29316,7.441049 -5.59117,7.923256 -0.29907,0.483898 0.60376,3.084827 2.01493,5.804716 1.40624,2.710386 2.95407,6.170557 3.43962,7.689268 0.58768,1.838134 1.41753,2.877311 2.48219,3.10832 0.87966,0.190866 5.57516,1.101834 10.43445,2.024374 l 8.83507,1.677345 0.65541,8.587311 c 0.36047,4.723018 0.47695,9.052359 0.25884,9.620749 -0.26714,0.696174 -3.24418,1.451463 -9.12236,2.31437 -4.79918,0.704524 -9.26424,1.436951 -9.92236,1.62762 -1.44855,0.419681 -7.61771,17.531501 -6.81421,18.901031 0.29542,0.50354 2.79851,4.12479 5.5624,8.04722 2.76391,3.92242 5.02529,7.51836 5.02529,7.99097 0,1.27281 -11.05749,13.2232 -12.2352,13.2232 -0.55571,0 -4.49696,-2.51128 -8.75833,-5.58063 l -7.74795,-5.58063 -6.79663,3.31931 c -3.738149,1.82562 -7.731912,3.5506 -8.875031,3.83328 -2.51123,0.62101 -2.875206,1.517 -4.574235,11.26039 -1.847812,10.59659 -1.952184,10.69229 -12.037216,11.03749 -6.428717,0.22003 -8.233277,0.0663 -8.476773,-0.72195 z M 84.425143,97.356656 C 90.15871,95.653968 96.378831,89.308573 98.092394,83.414142 101.15448,72.880918 96.738595,62.533705 87.011317,57.449199 83.911877,55.829101 82.399091,55.53 77.439985,55.55679 c -6.918217,0.03737 -10.073962,1.211947 -14.691425,5.468176 -4.507004,4.154411 -6.573157,9.234443 -6.568573,16.150096 0.0045,6.775833 1.84134,11.056427 6.644117,15.483477 6.240612,5.752392 13.057978,7.235139 21.601039,4.698117 z"
       id="path3335"
       inkscape:connector-curvature="0"
       transform="translate(263.31,563.77)" />
  </g>
  <metadata
     id="metadata6">
    <rdf:RDF>
      <cc:Work>
        <dc:format>image/svg+xml</dc:format>
        <dc:type
           rdf:resource="http://purl.org/dc/dcmitype/StillImage" />
        <cc:license
           rdf:resource="http://creativecommons.org/licenses/publicdomain/" />
        <dc:publisher>
          <cc:Agent
             rdf:about="http://openclipart.org/">
            <dc:title>Openclipart</dc:title>
          </cc:Agent>
        </dc:publisher>
        <dc:title>gear</dc:title>
        <dc:date>2012-05-07T08:05:23</dc:date>
        <dc:description>Tango Icon Gear / Shape</dc:description>
        <dc:source>https://openclipart.org/detail/169903/gear-by-hank0071</dc:source>
        <dc:creator>
          <cc:Agent>
            <dc:title>hank0071</dc:title>
          </cc:Agent>
        </dc:creator>
        <dc:subject>
          <rdf:Bag>
            <rdf:li>gear</rdf:li>
            <rdf:li>icon</rdf:li>
            <rdf:li>system</rdf:li>
          </rdf:Bag>
        </dc:subject>
      </cc:Work>
      <cc:License
         rdf:about="http://creativecommons.org/licenses/publicdomain/">
        <cc:permits
           rdf:resource="http://creativecommons.org/ns#Reproduction" />
        <cc:permits
           rdf:resource="http://creativecommons.org/ns#Distribution" />
        <cc:permits
           rdf:resource="http://creativecommons.org/ns#DerivativeWorks" />
      </cc:License>
    </rdf:RDF>
  </metadata>
</svg>
