<?xml version="1.0" encoding="UTF-8" standalone="no"?>
<svg
   xmlns:dc="http://purl.org/dc/elements/1.1/"
   xmlns:cc="http://creativecommons.org/ns#"
   xmlns:rdf="http://www.w3.org/1999/02/22-rdf-syntax-ns#"
   xmlns:svg="http://www.w3.org/2000/svg"
   xmlns="http://www.w3.org/2000/svg"
   xmlns:sodipodi="http://sodipodi.sourceforge.net/DTD/sodipodi-0.dtd"
   xmlns:inkscape="http://www.inkscape.org/namespaces/inkscape"
   height="32px"
   id="Layer_1"
   style="enable-background:new 0 0 32 32;"
   version="1.1"
   viewBox="0 0 32 32"
   width="32px"
   xml:space="preserve"
   inkscape:version="0.91 r13725"
   sodipodi:docname="ref.svg"><metadata
     id="metadata9"><rdf:RDF><cc:Work
         rdf:about=""><dc:format>image/svg+xml</dc:format><dc:type
           rdf:resource="http://purl.org/dc/dcmitype/StillImage" /></cc:Work></rdf:RDF></metadata><defs
     id="defs7" /><sodipodi:namedview
     pagecolor="#ffffff"
     bordercolor="#666666"
     borderopacity="1"
     objecttolerance="10"
     gridtolerance="10"
     guidetolerance="10"
     inkscape:pageopacity="0"
     inkscape:pageshadow="2"
     inkscape:window-width="1920"
     inkscape:window-height="1018"
     id="namedview5"
     showgrid="false"
     inkscape:zoom="20.85965"
     inkscape:cx="12.626014"
     inkscape:cy="15.693677"
     inkscape:window-x="1432"
     inkscape:window-y="-8"
     inkscape:window-maximized="1"
     inkscape:current-layer="Layer_1" /><path
     d="m 28.374376,14.251389 c -1.278621,0.271778 -1.693375,1.30166 -1.704086,2.29828 -0.03903,3.586617 -2.184677,9.491297 -8.653303,10.866248 C 12.223859,28.647283 6.5295081,24.948425 5.2983637,19.156346 4.0672192,13.364266 7.7648057,7.6690899 13.557933,6.4377223 c 1.6511,-0.3509525 3.26176,-0.1612785 4.819876,0.09995 0.734409,0.1231282 1.679234,0.1463712 1.616517,0.5537454 -0.111428,0.5273442 -1.323479,0.5728865 -2.009649,0.7162221 -1.158853,0.242076 -1.683253,1.22182 -1.437114,2.3798163 0.246141,1.157996 1.385729,1.898054 2.543725,1.651915 l 6.293457,-1.337717 C 26.542744,10.255516 27.2828,9.1159251 27.036661,7.9579292 L 25.698945,1.6644711 C 25.452805,0.50647481 24.313217,-0.23358294 23.15522,0.01255687 21.997225,0.25869657 21.316382,1.1428381 21.576061,2.5276783 21.620574,2.7650694 21.673451,3.0644825 21.442632,3.1393185 20.973781,3.2024277 20.585525,2.8743543 20.075278,2.702198 17.695866,1.8993737 15.298353,1.6825854 12.666124,2.2420834 4.555954,3.9659532 -0.62114474,11.937985 1.1027252,20.048155 2.8265947,28.158326 10.798629,33.335424 18.908798,31.611556 29.375867,29.38671 31.475482,18.525577 30.94597,16.034415 30.62202,14.51035 29.358254,14.042259 28.374376,14.251389 Z"
     id="path3"
     inkscape:connector-curvature="0"
     sodipodi:nodetypes="scsssscsssssssscssssss" /><path
     style="fill:#808080"
     d="M 14.040228,31.817323 C 10.771483,31.42787 7.7202294,29.972121 5.3746126,27.68297 4.1174553,26.456076 3.279985,25.342027 2.5055416,23.866373 1.6477583,22.231921 1.1219015,20.501505 0.87388731,18.497156 0.78520156,17.780434 0.79879395,15.897786 0.89811532,15.141395 1.1085456,13.538842 1.5159347,12.095456 2.1439982,10.727211 4.4600024,5.6817641 9.2740987,2.3478363 14.768525,1.9842907 c 1.914973,-0.1267066 4.252409,0.2581618 5.813557,0.9572261 0.22515,0.10082 0.509705,0.1979666 0.632344,0.2158813 0.191731,0.028008 0.23792,0.017631 0.329596,-0.074045 0.0987,-0.098702 0.103502,-0.1301948 0.06466,-0.4242035 -0.07467,-0.5651302 -0.04504,-1.1486172 0.07391,-1.4559879 0.305953,-0.79053088 1.287434,-1.31695043 2.211784,-1.18629443 0.756842,0.10697892 1.444189,0.66694375 1.696514,1.38210903 0.03974,0.1126499 0.387668,1.6867537 0.773163,3.4980086 0.649472,3.051556 0.699127,3.3205936 0.676745,3.6666636 -0.04609,0.7127052 -0.518406,1.424289 -1.150703,1.7336435 -0.337127,0.164941 -6.836634,1.560251 -7.26782,1.560251 -0.350964,0 -0.825037,-0.143267 -1.119518,-0.338323 C 16.428953,10.80796 16.17892,9.2657801 16.994038,8.381481 17.32885,8.0182534 17.659994,7.8807253 18.561926,7.7303196 19.646338,7.5494834 20.037759,7.359774 20.000417,7.0331295 19.973114,6.7943015 19.703057,6.7067223 18.402717,6.5149976 16.772522,6.2746393 16.447414,6.2442429 15.502381,6.2438291 13.992658,6.2431676 12.78116,6.5052525 11.361972,7.1395273 8.1258671,8.585833 5.8150138,11.582994 5.1924197,15.141395 c -0.1286353,0.735207 -0.1746851,2.061149 -0.097524,2.80806 0.255493,2.473133 1.2868828,4.705946 2.9734509,6.437099 2.8239061,2.898559 6.8768961,3.966257 10.7784601,2.839422 3.052837,-0.881709 5.418602,-2.961444 6.755115,-5.938396 0.644764,-1.436151 0.976682,-2.806222 1.070891,-4.420366 0.0513,-0.878895 0.117091,-1.186558 0.346019,-1.618056 0.532549,-1.00378 2.005771,-1.332953 2.976514,-0.665064 0.467955,0.321961 0.776358,0.817528 0.925249,1.486763 0.168847,0.758937 0.0098,2.463527 -0.364942,3.912421 -1.037392,4.010448 -3.389282,7.433632 -6.520052,9.48996 -1.949993,1.280779 -4.393916,2.135553 -6.779772,2.371257 -0.719611,0.07109 -2.518436,0.05589 -3.215601,-0.02717 z"
     id="path3333"
     inkscape:connector-curvature="0" /></svg>