<?xml version="1.0" encoding="UTF-8" standalone="no"?>
<svg
   xmlns:dc="http://purl.org/dc/elements/1.1/"
   xmlns:cc="http://creativecommons.org/ns#"
   xmlns:rdf="http://www.w3.org/1999/02/22-rdf-syntax-ns#"
   xmlns:svg="http://www.w3.org/2000/svg"
   xmlns="http://www.w3.org/2000/svg"
   xmlns:sodipodi="http://sodipodi.sourceforge.net/DTD/sodipodi-0.dtd"
   xmlns:inkscape="http://www.inkscape.org/namespaces/inkscape"
   height="32px"
   id="Layer_1"
   style="enable-background:new 0 0 32 32;"
   version="1.1"
   viewBox="0 0 32 32"
   width="32px"
   xml:space="preserve"
   inkscape:version="0.91 r13725"
   sodipodi:docname="ref.svg"><metadata
     id="metadata9"><rdf:RDF><cc:Work
         rdf:about=""><dc:format>image/svg+xml</dc:format><dc:type
           rdf:resource="http://purl.org/dc/dcmitype/StillImage" /></cc:Work></rdf:RDF></metadata><defs
     id="defs7" /><sodipodi:namedview
     pagecolor="#ffffff"
     bordercolor="#666666"
     borderopacity="1"
     objecttolerance="10"
     gridtolerance="10"
     guidetolerance="10"
     inkscape:pageopacity="0"
     inkscape:pageshadow="2"
     inkscape:window-width="1920"
     inkscape:window-height="1018"
     id="namedview5"
     showgrid="false"
     inkscape:zoom="20.85965"
     inkscape:cx="12.626014"
     inkscape:cy="15.693677"
     inkscape:window-x="1432"
     inkscape:window-y="-8"
     inkscape:window-maximized="1"
     inkscape:current-layer="Layer_1" /><path
     d="m 28.374376,14.251389 c -1.278621,0.271778 -1.693375,1.30166 -1.704086,2.29828 -0.03903,3.586617 -2.184677,9.491297 -8.653303,10.866248 C 12.223859,28.647283 6.5295081,24.948425 5.2983637,19.156346 4.0672192,13.364266 7.7648057,7.6690899 13.557933,6.4377223 c 1.6511,-0.3509525 3.26176,-0.1612785 4.819876,0.09995 0.734409,0.1231282 1.679234,0.1463712 1.616517,0.5537454 -0.111428,0.5273442 -1.323479,0.5728865 -2.009649,0.7162221 -1.158853,0.242076 -1.683253,1.22182 -1.437114,2.3798163 0.246141,1.157996 1.385729,1.898054 2.543725,1.651915 l 6.293457,-1.337717 C 26.542744,10.255516 27.2828,9.1159251 27.036661,7.9579292 L 25.698945,1.6644711 C 25.452805,0.50647481 24.313217,-0.23358294 23.15522,0.01255687 21.997225,0.25869657 21.316382,1.1428381 21.576061,2.5276783 21.620574,2.7650694 21.673451,3.0644825 21.442632,3.1393185 20.973781,3.2024277 20.585525,2.8743543 20.075278,2.702198 17.695866,1.8993737 15.298353,1.6825854 12.666124,2.2420834 4.555954,3.9659532 -0.62114474,11.937985 1.1027252,20.048155 2.8265947,28.158326 10.798629,33.335424 18.908798,31.611556 29.375867,29.38671 31.475482,18.525577 30.94597,16.034415 30.62202,14.51035 29.358254,14.042259 28.374376,14.251389 Z"
     id="path3"
     inkscape:connector-curvature="0"
     sodipodi:nodetypes="scsssscsssssssscssssss" /></svg>