<?xml version="1.0" encoding="UTF-8" standalone="no"?>
<!-- Created with Inkscape (http://www.inkscape.org/) -->

<svg
   xmlns:dc="http://purl.org/dc/elements/1.1/"
   xmlns:cc="http://creativecommons.org/ns#"
   xmlns:rdf="http://www.w3.org/1999/02/22-rdf-syntax-ns#"
   xmlns:svg="http://www.w3.org/2000/svg"
   xmlns="http://www.w3.org/2000/svg"
   xmlns:sodipodi="http://sodipodi.sourceforge.net/DTD/sodipodi-0.dtd"
   xmlns:inkscape="http://www.inkscape.org/namespaces/inkscape"
   width="120mm"
   height="120mm"
   viewBox="0 0 425.19685039 425.19685039"
   id="svg2816"
   version="1.1"
   inkscape:version="0.91 r13725"
   sodipodi:docname="ref.svg">
  <defs
     id="defs2818" />
  <sodipodi:namedview
     pagecolor="#ffffff"
     bordercolor="#666666"
     borderopacity="1.0"
     inkscape:pageopacity="0.0"
     inkscape:pageshadow="2"
     inkscape:zoom="1.4142136"
     inkscape:cx="260.87294"
     inkscape:cy="201.44395"
     inkscape:document-units="mm"
     inkscape:current-layer="Template"
     id="namedview2820"
     showgrid="false"
     units="mm"
     showguides="true"
     inkscape:guide-bbox="true"
     inkscape:snap-global="true"
     inkscape:snap-bbox="true"
     inkscape:snap-bbox-midpoints="true"
     inkscape:window-width="1920"
     inkscape:window-height="1018"
     inkscape:window-maximized="1"
     inkscape:bbox-paths="true"
     inkscape:bbox-nodes="true"
     inkscape:snap-bbox-edge-midpoints="true"
     inkscape:snap-grids="true"
     inkscape:window-x="1432"
     inkscape:window-y="-8">
    <sodipodi:guide
       orientation="1,0"
       position="212.59843,0"
       id="guide3337" />
    <sodipodi:guide
       orientation="0,1"
       position="0,212.59843"
       id="guide3339" />
    <inkscape:grid
       type="xygrid"
       id="grid3351"
       units="mm"
       spacingx="1mm"
       spacingy="1mm"
       empspacing="5" />
  </sodipodi:namedview>
  <metadata
     id="metadata2822">
    <rdf:RDF>
      <cc:Work
         rdf:about="">
        <dc:format>image/svg+xml</dc:format>
        <dc:type
           rdf:resource="http://purl.org/dc/dcmitype/StillImage" />
        <dc:title></dc:title>
      </cc:Work>
    </rdf:RDF>
  </metadata>
  <g
     inkscape:groupmode="layer"
     id="Template"
     inkscape:label="Layer 1"
     style="fill:none;stroke:#000000;stroke-width:0.35433071px">
    <path
       d="m 375.96627,190.31913 c -16.74132,3.55837 -22.17177,17.04301 -22.31199,30.09204 -0.51065,46.96048 -28.60462,124.27211 -113.30021,142.2747 C 164.50313,378.80855 89.945291,330.37833 73.825626,254.54103 57.705968,178.70369 106.11942,104.13525 181.97049,88.012575 c 21.61831,-4.595081 42.70713,-2.111679 63.10803,1.309335 9.6157,1.61217 21.98662,1.916464 21.1654,7.250403 -1.45898,6.904607 -17.32868,7.500867 -26.31291,9.377667 -15.17314,3.16949 -22.03925,15.99763 -18.81647,31.15951 3.22278,15.16201 18.14376,24.85183 33.30563,21.62907 l 82.40204,-17.51516 c 15.16202,-3.22279 24.85183,-18.14374 21.62904,-33.30564 L 340.93612,25.515739 C 337.71333,10.353722 322.79236,0.66390803 307.63048,3.886689 c -15.162,3.2227799 -24.07645,14.799202 -20.67638,32.9313 0.58265,3.108212 1.27528,7.028471 -1.74703,8.008373 -6.1388,0.826186 -11.22237,-3.469327 -17.90324,-5.723335 C 236.14955,28.591351 204.75829,25.752859 170.29377,33.078548 64.105048,55.649659 -3.6801677,160.02968 18.890943,266.2184 41.462055,372.40713 145.84219,440.19234 252.03079,417.62122 389.07906,388.49076 416.56998,246.28282 409.63693,213.66537 405.39538,193.71042 388.84849,187.5816 375.96627,190.3198 Z"
       id="path3"
       inkscape:connector-curvature="0"
       sodipodi:nodetypes="scsssscsssssssscssssss"
       style="stroke-width:4.63935089px;fill:#808080;stroke:#808080" />
    <path
       style="fill:#808080;stroke-width:4.63935089px;stroke:#808080"
       d="M 188.28525,420.31476 C 145.4867,415.21558 105.53585,396.15505 74.823988,366.18257 58.363644,350.11842 47.398415,335.53185 37.258456,316.21076 26.027172,294.81046 19.142072,272.15357 15.894675,245.91006 c -1.161372,-9.38421 -0.983304,-34.03428 0.31686,-43.9379 2.755218,-20.98263 8.089289,-39.88135 16.312653,-57.7961 C 62.848354,78.114587 125.88058,34.462508 197.8207,29.702577 c 25.07321,-1.659051 55.67799,3.38016 76.11855,12.533147 2.94795,1.320065 6.67364,2.592078 8.27941,2.826708 2.51038,0.366613 3.11514,0.230444 4.31554,-0.97021 1.29232,-1.292309 1.35516,-1.704615 0.84714,-5.554171 -0.97808,-7.399405 -0.58921,-15.039201 0.96759,-19.063684 4.00587,-10.3506292 16.85668,-17.2431932 28.95945,-15.5324245 9.90952,1.4005882 18.90919,8.7324305 22.21301,18.0962195 0.51981,1.474959 5.07575,22.085221 10.1232,45.800426 8.50369,39.954932 9.1539,43.477542 8.86074,48.008732 -0.60359,9.33158 -6.78756,18.64861 -15.06643,22.69903 -4.41415,2.15962 -89.51392,20.42879 -95.15961,20.42879 -4.59521,0 -10.80247,-1.87589 -14.65819,-4.42971 -14.05956,-9.31273 -17.33325,-29.50493 -6.66081,-41.08332 4.38392,-4.75587 8.71961,-6.55659 20.52884,-8.52581 14.19847,-2.36779 19.32358,-4.85171 18.83454,-9.128512 -0.35745,-3.12706 -3.89341,-4.273769 -20.91912,-6.784017 -21.34454,-3.147095 -25.60129,-3.54514 -37.97483,-3.550505 -19.76732,-0.0089 -35.62969,3.422851 -54.21155,11.727647 -42.3713,18.936807 -72.627894,58.179467 -80.779647,104.770597 -1.684317,9.62631 -2.287262,26.9872 -1.276589,36.76671 3.345194,32.38151 16.849474,61.6163 38.932216,84.28274 36.97423,37.95165 90.04117,51.93135 141.12539,37.17732 39.97167,-11.54447 70.94736,-38.77495 88.44667,-77.75299 8.44201,-18.80392 12.78795,-36.74263 14.02144,-57.87713 0.67168,-11.50758 1.5331,-15.53598 4.53053,-21.18559 6.97285,-13.14277 26.26211,-17.45282 38.9723,-8.70795 6.12713,4.2155 10.16509,10.70415 12.11455,19.46657 2.21079,9.937 0.131,32.25568 -4.77826,51.22653 -13.58284,52.50982 -44.37678,97.3306 -85.36884,124.25469 -25.53188,16.76949 -57.53082,27.96137 -88.76941,31.04744 -9.42219,0.93095 -32.97464,0.73192 -42.10288,-0.35612 z"
       id="path3333"
       inkscape:connector-curvature="0" />
  </g>
</svg>
