<?xml version="1.0" encoding="UTF-8" standalone="no"?>
<!-- Created with Inkscape (http://www.inkscape.org/) -->

<svg
   xmlns:dc="http://purl.org/dc/elements/1.1/"
   xmlns:cc="http://creativecommons.org/ns#"
   xmlns:rdf="http://www.w3.org/1999/02/22-rdf-syntax-ns#"
   xmlns:svg="http://www.w3.org/2000/svg"
   xmlns="http://www.w3.org/2000/svg"
   xmlns:sodipodi="http://sodipodi.sourceforge.net/DTD/sodipodi-0.dtd"
   xmlns:inkscape="http://www.inkscape.org/namespaces/inkscape"
   width="120mm"
   height="120mm"
   viewBox="0 0 425.19685039 425.19685039"
   id="svg2816"
   version="1.1"
   inkscape:version="0.91 r13725"
   sodipodi:docname="right_pil.svg">
  <defs
     id="defs2818" />
  <sodipodi:namedview
     pagecolor="#ffffff"
     bordercolor="#666666"
     borderopacity="1.0"
     inkscape:pageopacity="0.0"
     inkscape:pageshadow="2"
     inkscape:zoom="2"
     inkscape:cx="186.70795"
     inkscape:cy="210.68841"
     inkscape:document-units="mm"
     inkscape:current-layer="Template"
     id="namedview2820"
     showgrid="false"
     units="mm"
     showguides="true"
     inkscape:guide-bbox="true"
     inkscape:snap-global="true"
     inkscape:snap-bbox="true"
     inkscape:snap-bbox-midpoints="true"
     inkscape:window-width="1920"
     inkscape:window-height="1058"
     inkscape:window-maximized="1"
     inkscape:bbox-paths="true"
     inkscape:bbox-nodes="true"
     inkscape:snap-bbox-edge-midpoints="true"
     inkscape:snap-grids="true"
     inkscape:window-x="3352"
     inkscape:window-y="-8">
    <sodipodi:guide
       orientation="1,0"
       position="212.59843,0"
       id="guide3337" />
    <sodipodi:guide
       orientation="0,1"
       position="0,212.59843"
       id="guide3339" />
    <inkscape:grid
       type="xygrid"
       id="grid3351"
       units="mm"
       spacingx="1mm"
       spacingy="1mm"
       empspacing="5" />
  </sodipodi:namedview>
  <metadata
     id="metadata2822">
    <rdf:RDF>
      <cc:Work
         rdf:about="">
        <dc:format>image/svg+xml</dc:format>
        <dc:type
           rdf:resource="http://purl.org/dc/dcmitype/StillImage" />
        <dc:title></dc:title>
      </cc:Work>
    </rdf:RDF>
  </metadata>
  <g
     inkscape:groupmode="layer"
     id="Template"
     inkscape:label="Layer 1"
     style="fill:none;stroke:#000000;stroke-width:0.35433071px">
    <path
       style="fill:#808080;stroke:#808080;stroke-width:0.23459612px"
       d="m 246.92659,411.97034 c 4.95248,-4.20689 141.13988,-132.4309 152.55186,-143.92958 20.52148,-20.67737 24.80083,-28.28133 24.7789,-44.02951 -0.016,-11.47085 -2.53878,-19.42344 -9.08603,-28.64162 -1.85398,-2.6103 -9.78769,-11.63936 -17.63047,-20.06459 C 389.69807,166.87983 354.6668,128.58339 319.69358,90.201841 284.72036,51.820299 253.69401,17.927897 250.74611,14.885397 240.96743,4.7929056 231.64948,1.3686307 221.84637,1.3672691 c -9.32817,-0.0013 -16.47997,2.4707856 -25.22595,11.5608649 -11.44974,11.900249 -14.12885,26.017471 -7.56884,39.883113 1.98599,4.197703 7.05449,10.05618 45.75304,52.884223 42.26616,46.77632 52.55144,58.84203 54.98522,64.50338 1.85926,4.32491 1.57983,8.00434 -0.82813,10.90431 -2.53584,3.05401 -4.5068,4.1328 -8.59647,4.70522 -1.77059,0.24782 -55.90827,0.12581 -120.30594,-0.27107 -81.780936,-0.50404 -118.765536,-0.50615 -122.654386,-0.007 -20.90496,2.68328 -33.0645396,12.6904 -36.56502959,30.0924 -1.19884,5.95984 -0.84853,19.57851 0.62837999,24.42847 1.67741,5.50831 4.07873,9.74662 7.36233,12.99442 4.0761896,4.0317 8.3723896,6.32018 15.4458696,8.2276 5.60381,1.51112 5.87431,1.51796 60.03492,1.51796 29.923156,0 87.000906,-0.1108 126.839456,-0.24617 67.42168,-0.22915 72.62361,-0.16491 75.17837,0.92846 7.35102,3.14604 6.94452,10.35169 -1.05443,18.69114 -1.992,2.0768 -21.50271,19.6452 -43.35712,39.04091 -21.85443,19.39571 -41.04825,36.85198 -42.65295,38.79172 -7.56756,9.14761 -10.71116,20.28443 -8.63336,30.58544 2.32562,11.52974 10.50032,20.17988 20.32808,25.29428 12.17751,5.40529 24.54217,5.40197 35.96716,-3.9066 z"
       id="path3337"
       inkscape:connector-curvature="0"
       sodipodi:nodetypes="csssssssssssssssssssssssssscc" />
  </g>
</svg>
