<?xml version="1.0" encoding="UTF-8" standalone="no"?>
<!-- Created with Inkscape (http://www.inkscape.org/) -->

<svg
   xmlns:dc="http://purl.org/dc/elements/1.1/"
   xmlns:cc="http://creativecommons.org/ns#"
   xmlns:rdf="http://www.w3.org/1999/02/22-rdf-syntax-ns#"
   xmlns:svg="http://www.w3.org/2000/svg"
   xmlns="http://www.w3.org/2000/svg"
   xmlns:sodipodi="http://sodipodi.sourceforge.net/DTD/sodipodi-0.dtd"
   xmlns:inkscape="http://www.inkscape.org/namespaces/inkscape"
   width="120mm"
   height="120mm"
   viewBox="0 0 425.19685039 425.19685039"
   id="svg2816"
   version="1.1"
   inkscape:version="0.91 r13725"
   sodipodi:docname="right_pil.svg">
  <defs
     id="defs2818" />
  <sodipodi:namedview
     pagecolor="#ffffff"
     bordercolor="#666666"
     borderopacity="1.0"
     inkscape:pageopacity="0.0"
     inkscape:pageshadow="2"
     inkscape:zoom="2"
     inkscape:cx="212.98055"
     inkscape:cy="212.59843"
     inkscape:document-units="mm"
     inkscape:current-layer="Template"
     id="namedview2820"
     showgrid="false"
     units="mm"
     showguides="true"
     inkscape:guide-bbox="true"
     inkscape:snap-global="true"
     inkscape:snap-bbox="true"
     inkscape:snap-bbox-midpoints="true"
     inkscape:window-width="1920"
     inkscape:window-height="1058"
     inkscape:window-maximized="1"
     inkscape:bbox-paths="true"
     inkscape:bbox-nodes="true"
     inkscape:snap-bbox-edge-midpoints="true"
     inkscape:snap-grids="true"
     inkscape:window-x="3352"
     inkscape:window-y="-8">
    <sodipodi:guide
       orientation="1,0"
       position="212.59843,0"
       id="guide3337" />
    <sodipodi:guide
       orientation="0,1"
       position="0,212.59843"
       id="guide3339" />
    <inkscape:grid
       type="xygrid"
       id="grid3351"
       units="mm"
       spacingx="1mm"
       spacingy="1mm"
       empspacing="5" />
  </sodipodi:namedview>
  <metadata
     id="metadata2822">
    <rdf:RDF>
      <cc:Work
         rdf:about="">
        <dc:format>image/svg+xml</dc:format>
        <dc:type
           rdf:resource="http://purl.org/dc/dcmitype/StillImage" />
        <dc:title />
      </cc:Work>
    </rdf:RDF>
  </metadata>
  <g
     inkscape:groupmode="layer"
     id="Template"
     inkscape:label="Layer 1"
     style="fill:none;stroke:#000000;stroke-width:0.35433071px">
    <path
       style="fill:#808080;stroke-width:0.23459604px"
       d="m 231.79139,423.65149 c 5.01839,-1.85754 10.20709,-5.07038 15.63516,-9.68126 4.95249,-4.2069 140.63982,-134.43086 152.05181,-145.92955 20.52146,-20.67736 24.80082,-28.28132 24.7789,-44.02949 -0.016,-11.47085 -2.5388,-19.42343 -9.08603,-28.6416 -1.85398,-2.6103 -9.7877,-11.63936 -17.63046,-20.06458 -7.84279,-8.42522 -42.87403,-46.72164 -77.84724,-85.103174 C 284.72032,51.820311 253.69397,17.927928 250.74608,14.885428 240.9674,4.7929409 231.89945,0.11866621 222.09633,0.11730457 212.76818,0.11601155 205.36637,3.838097 196.6204,12.928164 c -11.44975,11.900256 -14.12885,26.017469 -7.56885,39.883103 1.986,4.197697 7.05448,10.056171 45.75304,52.884193 42.26614,46.7763 52.55143,58.84202 54.98521,64.50335 1.85925,4.32491 1.57981,8.00433 -0.82812,10.90431 -2.53586,3.054 -4.50683,4.1328 -8.59647,4.70522 -1.77061,0.24781 -55.90827,0.12581 -120.30593,-0.27107 -81.780924,-0.50405 -118.765515,-0.50616 -122.654374,-0.007 -20.904952,2.68328 -33.0645381,12.69039 -36.56502279,30.0924 -1.19884508,5.95982 -0.84852361,19.57848 0.62838959,24.42846 1.6773966,5.5083 4.0787178,9.74659 7.3623265,12.99438 4.0761807,4.03172 8.3723947,6.32021 15.4458607,8.22763 5.603818,1.51111 5.874314,1.51794 60.03492,1.51794 29.92317,0 87.00091,-0.11081 126.83941,-0.24617 67.42168,-0.22915 72.62362,-0.16491 75.17839,0.92848 7.35099,3.14602 6.94449,10.35169 -1.05445,18.69113 -1.992,2.07679 -21.50269,19.6452 -43.35711,39.04088 -21.85442,19.39571 -41.04824,36.85198 -42.65293,38.79171 -7.56756,9.14761 -10.71116,20.28442 -8.63337,30.58545 2.32564,11.52973 13.65199,27.04121 23.47974,32.15561 5.30946,2.76305 11.78011,3.09732 17.68033,0.91333 z"
       id="path3337"
       inkscape:connector-curvature="0" />
  </g>
</svg>
